<?xml version="1.0" ?><svg viewBox="0 0 64 64" xmlns="http://www.w3.org/2000/svg"><defs><style>.a{fill:#e5e4e4;stroke:#818180;}.a,.c,.d{stroke-linecap:round;stroke-width:2px;}.a,.d{stroke-linejoin:round;}.b{fill:#1c1c1c;}.c,.d{fill:none;stroke:#1c1c1c;}.c{stroke-miterlimit:10;}</style></defs><title/><path class="a" d="M37,11A13.26,13.26,0,1,1,22.46,32.5,17.42,17.42,0,1,0,37,11Z"/><path class="a" d="M38.78,39.57H36.34a14.1,14.1,0,1,0-28,.32A7.83,7.83,0,0,0,10.6,55.23H38.78a7.83,7.83,0,0,0,0-15.66Z"/><path class="b" d="M18,41h8a0,0,0,0,1,0,0v0a4,4,0,0,1-4,4h0a4,4,0,0,1-4-4v0A0,0,0,0,1,18,41Z"/><path class="c" d="M15,36a2,2,0,0,1,4,0"/><path class="c" d="M25,36a2,2,0,0,1,4,0"/><path class="c" d="M43,26a2,2,0,0,0,4,0"/><path class="c" d="M51,26a2,2,0,0,0,4,0"/><circle class="b" cx="45.5" cy="36.5" r="2.5"/><polyline class="d" points="26 17 30 17 26 21 30 21"/><polyline class="d" points="31 24 35 24 31 28 35 28"/></svg>