<?xml version="1.0" ?><svg viewBox="0 0 64 64" xmlns="http://www.w3.org/2000/svg"><defs><style>.a{fill:#e5e4e4;}.a,.c{stroke:#818180;}.a,.c,.d{stroke-linecap:round;stroke-linejoin:round;stroke-width:2px;}.b{fill:#1c1c1c;}.c{fill:#f4f2f2;}.d{fill:none;stroke:#1c1c1c;}</style></defs><title/><path class="a" d="M50,28H46.88a18,18,0,1,0-35.7.41A10,10,0,0,0,14,48H50a10,10,0,0,0,0-20Z"/><circle class="b" cx="20" cy="26" r="2"/><circle class="b" cx="36" cy="26" r="2"/><polygon class="c" points="16.43 51 11.81 51 9.5 55 11.81 59 16.43 59 18.74 55 16.43 51"/><polygon class="c" points="34.31 51 29.69 51 27.38 55 29.69 59 34.31 59 36.62 55 34.31 51"/><polygon class="c" points="52.43 51 47.81 51 45.5 55 47.81 59 52.43 59 54.74 55 52.43 51"/><path class="d" d="M37,39a27.29,27.29,0,0,0-17-3"/></svg>